<svg xmlns="http://www.w3.org/2000/svg" width="1000" height="1000" viewBox="0 0 1000 1000" role="img" aria-labelledby="css-logo-title css-logo-description">
  <title id="css-logo-title">CSS Logo</title>
  <desc id="css-logo-description">A purple square with rounded corners and the letters CSS inside in white</desc>
  <path id="bg" fill="#639" d="M0 0H840A160 160 0 0 1 1000 160V840A160 160 0 0 1 840 1000H160A160 160 0 0 1 0 840V0Z" />
  <path id="fg" fill="#fff" d="m388.37,920c-64.3-.05-104.14-36.14-103.37-102.79,0,0,0-168.39,0-168.39,0-33.74,9.9-59.4,29.72-76.96,35.58-34.19,118.14-36.27,152.99.52,21.48,18.89,29.57,57.46,27.65,93.49h-73.91c.56-14.15-.19-35.58-8.53-43.65-10.83-14.62-39.46-12.91-47.03,2.32-4.65,8.26-6.98,20.49-6.98,36.67v146.18c0,30.65,10.68,46.15,32.05,46.49,9.99,0,17.57-3.62,22.74-10.85,7.21-8.58,8.33-27.58,7.75-41.32h73.91c5.06,70.2-36.54,119.16-106.99,118.29Zm218.78,0c-71.26.99-103.29-49.55-101.31-118.29h69.78c-1.94,29.94,8.38,57.16,33.08,55.27,11.02,0,18.78-3.44,23.26-10.33,8.52-12.59,10.12-48.95-2.07-63.02-8.51-13.55-39.14-25.51-55.3-33.57-23.09-11.02-39.72-24.1-49.88-39.26-22.93-33.64-20.8-107.49,11.37-137.4,31.26-36.92,112.91-38.62,144.2-.77,19.3,19.51,27.73,57.89,26.1,93.23h-67.19c.57-14.52-.8-37.95-6.46-46.49-3.96-7.23-11.46-10.85-22.48-10.85-19.64,0-29.46,11.71-29.46,35.12.21,24.89,9.95,35.07,32.56,45.45,29.29,11.35,66.6,30.76,80.11,54.24,40.37,71.69,12.53,180.84-86.32,176.65Zm209.47,0c-71.26.99-103.29-49.55-101.31-118.29h69.78c-1.94,29.94,8.38,57.16,33.08,55.27,11.02,0,18.78-3.44,23.26-10.33,8.52-12.59,10.12-48.95-2.07-63.02-8.51-13.55-39.14-25.51-55.3-33.57-23.09-11.02-39.72-24.1-49.88-39.26-22.93-33.64-20.8-107.49,11.37-137.4,31.26-36.92,112.91-38.62,144.2-.77,19.3,19.51,27.73,57.89,26.1,93.23h-67.19c.57-14.52-.8-37.95-6.46-46.49-3.96-7.23-11.46-10.85-22.48-10.85-19.64,0-29.46,11.71-29.46,35.12.21,24.89,9.95,35.07,32.56,45.45,29.29,11.35,66.6,30.76,80.11,54.24,40.37,71.69,12.53,180.84-86.32,176.65Z" />
</svg>
