<svg xmlns="http://www.w3.org/2000/svg" width="1000" height="1000" viewBox="0 0 1000 1000">
  <g fill="#fff">
    <rect width="1000" height="1000" rx="160"/>
    <rect width="200" height="200"/>
  </g>
  <path fill="#000" d="M817 920c-32 0-57-9-74-28s-26-49-27-84h69c1 31 12 49 33 49 11 0 19-3 24-10 4-7 6-18 6-33 0-12-3-22-8-30-8-9-18-17-30-21l-26-12c-23-11-39-24-50-40-10-15-15-36-15-63 0-30 9-55 27-74s42-28 74-28 53 9 70 28c16 18 25 46 26 81h-67c0-11-2-24-7-34-4-8-11-12-22-12-20 0-29 12-29 35 0 12 2 21 7 28 7 8 15 14 25 18l25 11c25 11 44 26 55 43s17 40 17 69c0 34-9 61-27 79-18 19-44 28-76 28Zm-225 0c-32 0-57-9-74-28s-26-46-27-84h70c0 34 11 49 33 49 11 0 18-3 23-10 4-7 7-18 7-33 0-12-3-22-9-30-8-9-18-17-30-21l-25-12c-23-11-40-24-50-40-10-15-15-36-15-63 0-30 8-55 26-74s42-28 74-28 53 9 70 28c17 18 25 46 26 81h-67c1-11-2-24-7-34-3-8-11-12-22-12-19 0-29 12-29 35 0 12 2 21 7 28 7 8 16 14 25 18l25 11c26 11 44 26 55 43 12 17 17 40 17 69 0 34-9 61-27 79s-44 28-76 28Zm-234 0c-32 0-57-9-75-26-19-17-28-43-28-77V650c0-34 10-60 29-77 20-18 46-26 79-26s56 8 74 26 28 45 28 80v2h-74v-1c0-14-3-24-9-31a26 26 0 0 0-21-10c-12 0-21 4-26 12-5 12-7 24-6 37v146c0 30 10 46 32 46 10 0 17-4 22-11 6-9 9-19 8-30v-5h74v5c0 24-5 44-14 60-9 15-22 27-38 35-17 8-36 12-55 12Z"/>
</svg>
